# xmcd
#
# Track frame offsets: 
#        150
#        14495
#        30033
#        43159
#        62438
#        75753
#        93397
#        108249
#        121814
#        136697
#        153590
#        168070
#        183553
#        196677
#
# Disc length: 2865 seconds
#
# Revision: 0
# Processed by: cddbd v1.5.2PL0 Copyright (c) Steve Scherf et al.
# Submitted via: ExactAudioCopy v1.3
#
DISCID=970b2f0e
DTITLE=Liberación - Amigo Del Tiempo
DYEAR=1900
DGENRE=
TTITLE0=Noviembre Sin Ti Feat. Lupe Guevara
TTITLE1=Amigo del tiempo
TTITLE2=Copa Tras Copa
TTITLE3=Si Yo Hubiera Sabido
TTITLE4=Cuenta Hasta Diez
TTITLE5=Yo sé
TTITLE6=Lunático
TTITLE7=Ahora No La Dejo
TTITLE8=Lo mejor que hay en mi vida (la prohibida)
TTITLE9=Enamorado
TTITLE10=Se me olvidó otra vez
TTITLE11=Noviembre Sin ti (Versión balada) Feat. Lupe Guevara
TTITLE12=Copa Tras Copa (versión Tuba)
TTITLE13=Si yo hubiera sabido (Versión Cumbia)
EXTD=
EXTT0=
EXTT1=
EXTT2=
EXTT3=
EXTT4=
EXTT5=
EXTT6=
EXTT7=
EXTT8=
EXTT9=
EXTT10=
EXTT11=
EXTT12=
EXTT13=
PLAYORDER=
